<svg width="134" height="36" viewBox="0 0 134 36" fill="none" xmlns="http://www.w3.org/2000/svg">
<path d="M47.63 22V19.041L43.967 14.08H45.848L48.422 17.314L50.985 14.08H52.888L49.225 19.052V22H47.63ZM55.0403 22C54.747 22 54.4793 21.9303 54.2373 21.791C54.0026 21.6443 53.812 21.4537 53.6653 21.219C53.526 20.977 53.4563 20.7093 53.4563 20.416V15.664C53.4563 15.3707 53.526 15.1067 53.6653 14.872C53.812 14.63 54.0026 14.4393 54.2373 14.3C54.4793 14.1533 54.747 14.08 55.0403 14.08H59.7923C60.0783 14.08 60.3386 14.1533 60.5733 14.3C60.8153 14.4393 61.0096 14.63 61.1563 14.872C61.303 15.1067 61.3763 15.3707 61.3763 15.664V20.416C61.3763 20.7093 61.303 20.977 61.1563 21.219C61.0096 21.4537 60.8153 21.6443 60.5733 21.791C60.3386 21.9303 60.0783 22 59.7923 22H55.0403ZM55.1063 20.405H59.7043C59.7263 20.405 59.741 20.4013 59.7483 20.394C59.763 20.3793 59.7703 20.361 59.7703 20.339V15.741C59.7703 15.719 59.763 15.7043 59.7483 15.697C59.741 15.6823 59.7263 15.675 59.7043 15.675H55.1063C55.0843 15.675 55.066 15.6823 55.0513 15.697C55.044 15.7043 55.0403 15.719 55.0403 15.741V20.339C55.0403 20.361 55.044 20.3793 55.0513 20.394C55.066 20.4013 55.0843 20.405 55.1063 20.405ZM64.1497 22C63.8563 22 63.5887 21.9303 63.3467 21.791C63.112 21.6443 62.9213 21.4537 62.7747 21.219C62.6353 20.977 62.5657 20.7093 62.5657 20.416V14.08H64.1497V20.339C64.1497 20.361 64.1533 20.3793 64.1607 20.394C64.1753 20.4013 64.1937 20.405 64.2157 20.405H68.8137C68.8357 20.405 68.8503 20.4013 68.8577 20.394C68.8723 20.3793 68.8797 20.361 68.8797 20.339V14.08H70.4857V20.416C70.4857 20.7093 70.4123 20.977 70.2657 21.219C70.119 21.4537 69.9247 21.6443 69.6827 21.791C69.448 21.9303 69.1877 22 68.9017 22H64.1497ZM71.6971 22V14.08H73.3801L78.0111 19.602V14.08H79.6171V22H77.9341L73.2811 16.456V22H71.6971ZM82.4334 22C82.1401 22 81.8724 21.9303 81.6304 21.791C81.3957 21.6443 81.2051 21.4537 81.0584 21.219C80.9191 20.977 80.8494 20.7093 80.8494 20.416V15.664C80.8494 15.3707 80.9191 15.1067 81.0584 14.872C81.2051 14.63 81.3957 14.4393 81.6304 14.3C81.8724 14.1533 82.1401 14.08 82.4334 14.08H87.1744C87.4677 14.08 87.7317 14.1533 87.9664 14.3C88.2084 14.4393 88.4027 14.63 88.5494 14.872C88.6961 15.1067 88.7694 15.3707 88.7694 15.664V16.346H87.1634V15.741C87.1634 15.719 87.1561 15.7043 87.1414 15.697C87.1341 15.6823 87.1194 15.675 87.0974 15.675H82.4994C82.4774 15.675 82.4591 15.6823 82.4444 15.697C82.4371 15.7043 82.4334 15.719 82.4334 15.741V20.339C82.4334 20.361 82.4371 20.3793 82.4444 20.394C82.4591 20.4013 82.4774 20.405 82.4994 20.405H87.0974C87.1194 20.405 87.1341 20.4013 87.1414 20.394C87.1561 20.3793 87.1634 20.361 87.1634 20.339V19.041H85.4144V17.446H88.7694V20.416C88.7694 20.7093 88.6961 20.977 88.5494 21.219C88.4027 21.4537 88.2084 21.6443 87.9664 21.791C87.7317 21.9303 87.4677 22 87.1744 22H82.4334Z" fill="white"/>
<path d="M93.472 22V14.08H99.797C100.09 14.08 100.354 14.1533 100.589 14.3C100.831 14.4393 101.025 14.63 101.172 14.872C101.319 15.1067 101.392 15.3707 101.392 15.664V20.416C101.392 20.7093 101.319 20.977 101.172 21.219C101.025 21.4537 100.831 21.6443 100.589 21.791C100.354 21.9303 100.09 22 99.797 22H93.472ZM95.111 20.405H99.72C99.742 20.405 99.7567 20.4013 99.764 20.394C99.7787 20.3793 99.786 20.361 99.786 20.339V15.741C99.786 15.719 99.7787 15.7043 99.764 15.697C99.7567 15.6823 99.742 15.675 99.72 15.675H95.111C95.0963 15.675 95.0817 15.6823 95.067 15.697C95.0523 15.7043 95.045 15.719 95.045 15.741V20.339C95.045 20.361 95.0523 20.3793 95.067 20.394C95.0817 20.4013 95.0963 20.405 95.111 20.405ZM102.646 22V14.08H109.95V15.675H104.252V17.237H108.839V18.843H104.252V20.405H109.95V22H102.646ZM115.402 22L110.815 14.08H112.652L116.084 20.031L119.516 14.08H121.353L116.766 22H115.402ZM122.056 17.127V14.212H123.618V15.543C123.618 15.7997 123.548 16.038 123.409 16.258C123.277 16.478 123.09 16.665 122.848 16.819C122.613 16.973 122.349 17.0757 122.056 17.127ZM126.121 22C125.835 22 125.571 21.9303 125.329 21.791C125.087 21.6443 124.896 21.4537 124.757 21.219C124.618 20.977 124.548 20.7093 124.548 20.416V19.745H126.132V20.339C126.132 20.361 126.136 20.3793 126.143 20.394C126.158 20.4013 126.172 20.405 126.187 20.405H130.796C130.811 20.405 130.825 20.4013 130.84 20.394C130.855 20.3793 130.862 20.361 130.862 20.339V18.898C130.862 18.8833 130.855 18.8723 130.84 18.865C130.825 18.8503 130.811 18.843 130.796 18.843H126.121C125.835 18.843 125.571 18.7733 125.329 18.634C125.087 18.4873 124.896 18.293 124.757 18.051C124.618 17.809 124.548 17.545 124.548 17.259V15.664C124.548 15.3707 124.618 15.1067 124.757 14.872C124.896 14.63 125.087 14.4393 125.329 14.3C125.571 14.1533 125.835 14.08 126.121 14.08H130.884C131.17 14.08 131.43 14.1533 131.665 14.3C131.907 14.4393 132.101 14.63 132.248 14.872C132.395 15.1067 132.468 15.3707 132.468 15.664V16.335H130.862V15.741C130.862 15.719 130.855 15.7043 130.84 15.697C130.825 15.6823 130.811 15.675 130.796 15.675H126.187C126.172 15.675 126.158 15.6823 126.143 15.697C126.136 15.7043 126.132 15.719 126.132 15.741V17.182C126.132 17.1967 126.136 17.2113 126.143 17.226C126.158 17.2333 126.172 17.237 126.187 17.237H130.884C131.17 17.237 131.43 17.3103 131.665 17.457C131.907 17.5963 132.101 17.787 132.248 18.029C132.395 18.271 132.468 18.535 132.468 18.821V20.416C132.468 20.7093 132.395 20.977 132.248 21.219C132.101 21.4537 131.907 21.6443 131.665 21.791C131.43 21.9303 131.17 22 130.884 22H126.121Z" fill="#AC0ABA" fill-opacity="0.5"/>
<path d="M0.699951 0C54.9093 15.7658 3.62827 28.5833 3.62827 28.5833C2.61835 28.7803 1.80337 29.4216 1.31296 30.3972C0.762029 31.4906 0.714373 32.9706 1.22949 34.0097C1.85542 35.2751 2.64863 35.7129 3.33394 35.9028C4.41002 36.198 5.27967 35.7268 5.27967 35.7268C5.27967 35.7268 31.4953 26.2329 31.2989 16.7499C31.1995 11.9881 23.2602 3.9374 0.699951 0Z" fill="url(#paint0_linear_50_226)"/>
<defs>
<linearGradient id="paint0_linear_50_226" x1="16" y1="10.6875" x2="11.1426" y2="35.668" gradientUnits="userSpaceOnUse">
<stop stop-color="white"/>
<stop offset="1" stop-color="#B101C1" stop-opacity="0.5"/>
</linearGradient>
</defs>
</svg>
