<svg width="510" height="119" viewBox="0 0 510 119" fill="none" xmlns="http://www.w3.org/2000/svg">
<path d="M509.5 109C509.5 114.247 505.247 118.5 500 118.5L32.0604 118.5C26.8137 118.5 22.5604 114.247 22.5604 109V76.0213C22.5604 72.2488 20.5365 68.7662 17.2588 66.8985L1.91965 58.1579C0.218994 57.1888 0.241272 54.7297 1.95914 53.7916L17.0927 45.5274C20.4635 43.6867 22.5604 40.1525 22.5604 36.3119V10C22.5604 4.7533 26.8137 0.500008 32.0604 0.500008L500 0.500008C505.247 0.500008 509.5 4.7533 509.5 10V109Z" fill="#151515" stroke="url(#paint0_linear_111_251)"/>
<defs>
<linearGradient id="paint0_linear_111_251" x1="490.269" y1="39.5" x2="10.6577" y2="50.9032" gradientUnits="userSpaceOnUse">
<stop stop-color="#9500A3"/>
<stop offset="1" stop-color="#44C211" stop-opacity="0.37"/>
</linearGradient>
</defs>
</svg>
